<svg id="Layer_1" data-name="Layer 1" xmlns="http://www.w3.org/2000/svg" viewBox="0 0 353.64 353.37"><defs><style>.cls-1{fill:#f89b55;}</style></defs><path class="cls-1" d="M321.14,398.16q0,86,.08,171.93c0,3.63-.79,4.74-4.57,4.48a174.48,174.48,0,0,1-83.43-27.23c-31.07-19.83-53.92-46.79-68.24-80.73a171.27,171.27,0,0,1-12.58-89.06c6.49-52.19,31.4-93.66,73.89-124.32,24.44-17.64,52-27.84,82.07-31,3-.33,6.06-.36,9.05-.83,3.17-.49,3.79.82,3.78,3.73-.09,30.23-.05,60.47-.05,90.71Z" transform="translate(-151.05 -221.26)"/><path class="cls-1" d="M334.57,547c0-7.84.09-15.69-.05-23.53,0-2.59.41-3.64,3.4-3.91,40.65-3.71,72.3-22.66,94.49-56.92,28.93-44.66,23.51-106.44-12.3-145.77-20-22-44.66-35.14-74-39.71a74.27,74.27,0,0,0-9-.85c-2-.07-2.57-.84-2.56-2.75,0-16.45.09-32.89,0-49.33,0-2.84,1.3-3,3.5-2.85,27.23,1.46,52.86,8.7,76.4,22.4,50,29.13,80.11,72.5,88.31,129.69,7.45,52-6.45,98.82-40.41,139.08-29.11,34.5-66.57,54.38-111.16,60.91-4.49.66-9.07.67-13.59,1.14-2.39.25-3.07-.63-3-2.94C334.63,563.43,334.57,555.21,334.57,547Z" transform="translate(-151.05 -221.26)"/><path class="cls-1" d="M334.57,482.94c0-6.32.11-12.65-.05-19-.07-2.69.47-3.84,3.53-4.35,27.12-4.45,46.67-23,52.3-49.22,7.23-33.67-15.71-67.72-49.63-73.68-6.15-1.08-6.15-1.08-6.15-7.36,0-11.89.14-23.79-.09-35.67-.06-3.51,1-4.27,4.31-4,22.17,2.09,42,10,59.09,24.21,25.2,21,38.7,48,39.77,80.78a108.32,108.32,0,0,1-92.8,110.71c-10.27,1.47-10.28,1.41-10.28-8.82Z" transform="translate(-151.05 -221.26)"/><path class="cls-1" d="M334.57,397.86c0-14.93.12-29.85-.09-44.77-.06-3.53,1.17-3.88,4.09-3.37,21.19,3.69,38.29,22.92,39.54,44.58,1.44,25.07-14,45.82-38.29,51.58-5.25,1.25-5.25,1.25-5.25-4Z" transform="translate(-151.05 -221.26)"/></svg>