<svg id="Layer_1" data-name="Layer 1" xmlns="http://www.w3.org/2000/svg" viewBox="0 0 346.84 376.95"><defs><style>.cls-1{fill:#0ab050;}.cls-2{fill:#0eb151;}.cls-3{fill:#0db151;}</style></defs><path class="cls-1" d="M285.35,562.51H239.88c-8.52,0-10.8-2.61-9.6-10.87,6.64-45.83,8.77-91.84,5-138-3.4-42.05-11.56-83-29.7-121.53a216,216,0,0,0-23.48-38.81c-3.93-5.17-2.3-10.89,3.22-12.24,3-.72,5.12.91,7.33,2.38a301.09,301.09,0,0,1,64.34,58c39,46.87,62.36,101.05,74.46,160.43,6.14,30.12,8.88,60.58,9.54,91.27.15,6.9-2.23,9.33-9.19,9.34Q308.59,562.54,285.35,562.51Z" transform="translate(-126.59 -185.62)"/><path class="cls-2" d="M356.12,460.07c-1.95-8.46-3.61-16.32-5.56-24.11-10.21-40.81-26.05-79.25-48.86-114.7-1.6-2.48-2-4.27-.38-7.08,32.51-54.72,76.17-97.61,133.35-126.25.45-.22.91-.42,1.34-.67,3.91-2.19,7.75-2.63,10.59,1.48,2.67,3.85,1.06,7.18-2,10.17a198,198,0,0,0-26,31.57c-22.77,33.89-36.55,71.53-46,110.93-9.05,37.68-13.5,76-15.18,114.63C357.39,457.12,357.83,458.33,356.12,460.07Z" transform="translate(-126.59 -185.62)"/><path class="cls-3" d="M404.47,562.51c-10.16,0-20.32-.08-30.47,0-4.28.05-6.07-1.9-6-6,.91-45.88,9.39-89.94,31.73-130.58,15.74-28.62,36.82-52.5,63.88-71l.82-.56c2.41-1.77,5-3.21,7.58-.59s1.09,5.1-.72,7.51c-10.82,14.4-18.36,30.44-23.69,47.56-9.39,30.21-12,61.27-11.49,92.73a411.77,411.77,0,0,0,4.17,52.72c1,6.92-.2,8.17-7.35,8.18Z" transform="translate(-126.59 -185.62)"/><path class="cls-2" d="M176.05,562.51h-19c-6.64,0-7.29-.64-6.34-7.16a291,291,0,0,0,2.9-47.28c-.46-23.61-3.56-46.74-12.69-68.75a105,105,0,0,0-12.45-22.13c-1.27-1.73-3-3.55-1-5.73,2.17-2.35,4.23-.76,6.17.58,30,20.69,49.11,49.14,59.9,83.55,6.32,20.15,9,40.86,9.4,61.94.07,3.6-1.25,5.12-4.95,5C190.7,562.39,183.37,562.51,176.05,562.51Z" transform="translate(-126.59 -185.62)"/></svg>