<svg id="Layer_1" data-name="Layer 1" xmlns="http://www.w3.org/2000/svg" viewBox="0 0 352.48 329.11"><defs><style>.cls-1{fill:#2bade4;}.cls-2{fill:#2baee4;}</style></defs><path class="cls-1" d="M461.34,236.74c11.48-.43,24.75,12.93,19.86,27.88-8.48,25.93-17,51.84-26.18,77.52-14.28,39.92-29.45,79.5-44.84,119q-18,46.37-36,92.79c-1.32,3.41-3,6.55-5.93,8.79-7.09,5.35-16,3.67-20.92-4.05-12.69-19.88-25.22-39.85-38-59.69-12.32-19.2-24.82-38.28-37.28-57.39-4.44-6.81-4.2-9,1.67-14.45q41.31-38,82.59-76.11,17.25-15.88,34.59-31.7c.75-.7,1.47-1.43,2.23-2.12,1.23-1.13,2.14-2.47,1-4s-2.68-.92-4.08,0c-5.32,3.34-10.67,6.63-16,10q-65.86,41.53-131.7,83.11A10.55,10.55,0,0,1,233,407.7q-45.42-14.34-91.1-27.81c-8.55-2.5-12.58-7.54-12-15.05.48-6.78,4.49-10.9,10.66-13.21,8.76-3.28,17.5-6.61,26.25-9.9q53-19.94,106.1-39.85C312.4,287.05,352,272.32,392,258.54q31.23-10.77,62.72-20.79A19.37,19.37,0,0,1,461.34,236.74Z" transform="translate(-129.76 -236.72)"/><path class="cls-2" d="M284.54,499.44a11.12,11.12,0,0,1-3.78,9.4q-13.15,12.39-26.36,24.74a12.76,12.76,0,0,1-13.91,2.75,13.5,13.5,0,0,1-9.21-11.3,33.74,33.74,0,0,1-.49-4.58c-.18-26.66-1.33-53.31-1.08-80,0-5.32,1.65-8,5.71-9.26,3.82-1.22,7.16.22,10,4.51q18.29,27.76,36.5,55.59C283.53,493.8,284.94,496.42,284.54,499.44Z" transform="translate(-129.76 -236.72)"/></svg>