<svg id="Layer_1" data-name="Layer 1" xmlns="http://www.w3.org/2000/svg" viewBox="0 0 500 500"><defs><style>.cls-1{fill:#202a5d;}.cls-2{fill:#fde699;}.cls-3{fill:#2daee4;}.cls-4{fill:#97a3bd;}.cls-5{fill:#fefefe;}</style></defs><path class="cls-1" d="M366.78,193.82c4.58,5.48,9.82,10.39,14,16.24A189.54,189.54,0,0,1,406,258.3a159.38,159.38,0,0,1,8.93,60.12A139.93,139.93,0,0,1,392.45,387c-6.25,9.67-14.49,17.16-23.59,23.95-15.81,11.82-33.83,16.16-53.16,15.7a97.64,97.64,0,0,1-36.89-8.55c-1.46-.63-3-1.21-4.36-2-13.53-7.29-26.2-15.84-36.7-27.12-7.1-7.61-13.89-15.58-19.33-24.55-.43-.71-1.11-1.33-.95-2.29A150.4,150.4,0,0,0,233.69,357c4.08,2.4,8.05,5,12.24,7.14a112.09,112.09,0,0,0,22.39,8.42,106,106,0,0,0,40.3,3.07c3.68-.44,3.69-.44,2.9,3.18-3,13.91,4.87,29.56,18,34.7,9.07,3.55,17.8,2.93,26.44-2.5,17.94-11.29,19.48-36,3-50.24a30.73,30.73,0,0,0-9.41-5.14c9.72-9.78,15-21.56,17.24-34.71,3.76-22.05-1.72-42.47-11.47-62.07-.19-.53.43-1.32-.5-1.63l0-.05a10.67,10.67,0,0,0-2.76-5.11v0a3.93,3.93,0,0,0-1.73-2.73l-.05-.09a.8.8,0,0,0-.53-1l-.06-.09c.07-.36-.12-.52-.45-.57l0,0a4.78,4.78,0,0,0-2.2-3.47,1,1,0,0,0-.22-.45c.07-.35-.06-.52-.43-.47l-.09-.09a3.1,3.1,0,0,0-1.56-2.33h0a2.21,2.21,0,0,0-1.16-1.63l0,0c-.5-1-.46-2.26-1.67-2.8l0,0a2.87,2.87,0,0,0-1.73-2.09l-.15-.15c.1-.33,0-.48-.37-.52l0-.06a4.89,4.89,0,0,0-2.25-2.76l-.05-.08c0-.37-.14-.52-.49-.49l-.07-.07a1.16,1.16,0,0,0-1-1.19,1.23,1.23,0,0,0-.3-.44,16.2,16.2,0,0,0-4.32-4.49l-.1-.11c0-.34-.11-.48-.45-.43l-.13-.14c.06-.35-.08-.49-.43-.45l-.12-.12c0-.33-.11-.48-.45-.44l-.11-.13c0-.34-.1-.49-.45-.45l-.13-.11c0-.34-.11-.48-.44-.45l-.12-.12c0-.35-.1-.49-.45-.43l-.14-.13c.06-.34-.09-.48-.42-.46l-.11-.09a5.42,5.42,0,0,0-2.68-2.32l0,0-.55-.51,0,0c0-.35-.2-.5-.55-.45l-.1-.08c0-.33-.13-.5-.47-.49l-.07-.07a5.16,5.16,0,0,0-2.72-2.32l-.68-.52c0-1.45-1.07-1.87-2.17-2.28l0,0c0-.32-.21-.49-.55-.44l-.09-.09a8.94,8.94,0,0,0-3.86-2.84l0,0c0-.35-.17-.52-.53-.47l-.09-.06a1.84,1.84,0,0,0-1.6-1.15l0,0A70.44,70.44,0,0,0,294.1,196a1.11,1.11,0,0,0-.47-.14c-.11-.3-.28-.49-.63-.4l-.11-.08c-.18-.2-.32-.49-.54-.59-8-3.61-15.93-7.34-24.37-9.76-3.48-1-7-2.07-10.73-2l-1-.13c-7.09-1.84-14.32-1.78-21.53-1.35-3.24.2-6.63-.36-9.68,1.31l-1.56.17-2.41-.18c-1-.85,0-1.27.43-1.72,1.5-1.56,3-3.08,4.56-4.62l.08,0A12.19,12.19,0,0,0,230.6,173l.08-.06c.34,0,.5-.15.53-.48l0,0a7.12,7.12,0,0,0,3.33-2.27l0,0a8.86,8.86,0,0,0,3.94-2.23l0,0c4.49-2.22,8.84-4.79,13.49-6.58a74.52,74.52,0,0,1,26.37-5.27c3.95,0,7.9-.09,11.85-.14l3.29.1c3.77.75,7.56,1.38,11.29,2.27,4.11,1,8.43,1.65,12.15,3.48,4.61,2.26,9.43,3.94,14.05,6.11l.05,0a3.37,3.37,0,0,0,2.21,1.13l0,0,10.72,6.24,0,0a17.93,17.93,0,0,0,5.1,3.32l.1,0,.49.41.13.15c0,.34.13.44.44.32l.49.32c0,.34.19.56.58.52l0,0a3,3,0,0,0,2.27,1.63l.06.05c0,.36.15.53.51.48l.1.07c0,.29.2.4.48.28a.69.69,0,0,0,.31.3c-.13.3,0,.38.27.29l.51.31c.09.31.25.5.61.43l.08.08a3.43,3.43,0,0,0,2.13,1.76h0c.31.94.59,1.9,1.71,2.23l0,0a.43.43,0,0,0,.56.45l.1.09c0,.33.11.51.46.5l.08.07c0,.32.19.45.51.39l.12.14c.14.77.75,1.06,1.37,1.33l.06,0,.1.18h.19Z"/><path class="cls-2" d="M233.69,357a150.4,150.4,0,0,1-16.22,5.13c-3.76,2.13-8,2.47-12.14,3.2a157.55,157.55,0,0,1-33.74,2.36c-10.55-.43-21.1-1.39-31.2-4.46-17.6-5.35-34.76-12-49-24-13.69-11.52-24.88-25.09-31.26-42.18A92.79,92.79,0,0,1,54,258.84a99.35,99.35,0,0,1,13.25-43.67C73,205,80.58,196.4,88.75,188.12c8.54-8.64,18.49-15.09,28.89-21A123.93,123.93,0,0,1,146,154.82c.63-.18,1.28-.29,1.92-.44q-2.82,7.65-5.62,15.29a1.42,1.42,0,0,0-.58,1.76v0c-1.42-.23-2,1-2.68,1.76a168.6,168.6,0,0,0-12.37,16.11c-10.89,16.09-19.25,33.26-23.19,52.38-1.86,9.08-3,18.25-1,27.47.6,2.64-.27,3.44-2.83,3.86-9.88,1.62-16.77,7.11-21.45,16.06-6,11.52-3.55,27.51,6.79,36.7,8.76,7.79,24.34,9.71,34.3,3.47,9-5.66,14-13.82,14.88-24.36.24-2.95,1.26-2.25,2.79-1.25,7.76,5.07,16.64,7.47,25.35,9.91,10.08,2.82,20.61,3.45,31.06,3.54a168.71,168.71,0,0,0,19.19-.88c8.37-.89,16.73-1.52,24.89-3.93,7.11-2.1,14.38-3.71,21.65-5.2,17.66-3.61,34.39-9.46,50.13-20.23-3.59,10.45-9.12,19-15.36,26.84A133.06,133.06,0,0,1,233.69,357Z"/><path class="cls-3" d="M142.33,169.67q2.8-7.63,5.62-15.29c3.26-6.34,6.34-12.79,9.83-19,4.15-7.39,9.53-13.95,14.64-20.7,7.09-9.35,15.86-16.85,24.72-24.34a127.18,127.18,0,0,1,29.18-18.06c8.75-4,17.94-6.64,27.18-9.24,9.64-2.71,19.39-3,29.26-2.85A61.7,61.7,0,0,1,297.31,62c16.83,4.38,32.6,11,45,23.67,14.38,14.65,23.12,32.24,26.83,52.5,3.34,18.24,2.24,36.2-1.85,54.12a14.54,14.54,0,0,1-.54,1.57l-2.62-2.26c0-.14-.13-.19-.29-.17l-.06,0c0-.51,0-1,0-1.52-.13-.75-.3-1.49-.37-2.24-1.37-15.12-7.06-28.21-18.21-38.71-1.87-1.76-3.93-3.31-5.75-4.84,10.09-8.15,15.44-18,13.81-31.3-1.49-12.23-12.65-24.22-24.86-26a25.5,25.5,0,0,0-13.13,1.4c-13.59,5.11-20.35,14.88-21,29.12-.1,2.08-.79,2-2.4,1.57a65.84,65.84,0,0,0-30.5-1.13,97.82,97.82,0,0,0-45,21c-9.63,8-18.54,16.49-26,26.64a139.92,139.92,0,0,0-23.09,48c-3.83,14.77-5,29.68-2.32,44.8,2.48,14.19,8.18,26.76,18.41,37.11a66.46,66.46,0,0,0,9.18,7.48c-1.25.37-1.91-.28-2.65-.64a87.21,87.21,0,0,1-24-16.42,93.71,93.71,0,0,1-21.74-32.41c-8.81-22.21-9.73-45.11-5.34-68.37.85-4.52,2-9,3-13.48v0C142.59,171.05,142.32,170.32,142.33,169.67Z"/><path class="cls-4" d="M238.62,167.93c.37-1.26,1.59-1.54,2.53-2.06a78.82,78.82,0,0,1,22-8.8,93,93,0,0,1,26.1-1.95,1.13,1.13,0,0,1,1,.82c-3.95.05-7.9.12-11.85.14a74.52,74.52,0,0,0-26.37,5.27C247.46,163.14,243.11,165.71,238.62,167.93Z"/><path class="cls-4" d="M293.62,156c3.52-.95,6.82.61,10.13,1.18a58.94,58.94,0,0,1,13.86,4c4.57,2,9.53,3.39,13.5,6.65-4.62-2.17-9.44-3.85-14.05-6.11-3.72-1.83-8-2.49-12.15-3.48C301.18,157.42,297.39,156.79,293.62,156Z"/><path class="cls-4" d="M292.89,195.36c-3.59-.81-6.7-2.83-10.13-4.05-3.17-1.13-6.42-2.09-9.45-3.51-4.88-2.29-10.06-3.21-15.28-4.11-.29-.05-.52-.48-.78-.73,3.71,0,7.25,1,10.73,2,8.44,2.42,16.39,6.15,24.37,9.76C292.57,194.87,292.71,195.16,292.89,195.36Z"/><path class="cls-4" d="M256.25,182.83c-2.25.87-4.45-.1-6.64-.29-7.41-.66-14.77-.87-22.13.49a2.88,2.88,0,0,1-2.44-.24c3.05-1.67,6.44-1.11,9.68-1.31C241.93,181.05,249.16,181,256.25,182.83Z"/><path class="cls-4" d="M310,205.52a5.36,5.36,0,0,1-3-1.35,84,84,0,0,0-11.56-6.83A2.13,2.13,0,0,1,294.1,196,70.44,70.44,0,0,1,310,205.52Z"/><path class="cls-4" d="M333.41,169.07c4.22,1,7.61,3.37,10.72,6.24Z"/><path class="cls-4" d="M219.18,182.5c2.09-2.25,3.87-4.86,6.88-6.06-1.52,1.54-3.06,3.06-4.56,4.62-.43.45-1.41.87-.43,1.72l0,0c-.57-1.09-1.14,0-1.7,0Z"/><path class="cls-4" d="M223.48,183c-1.63,1.84-4,.88-6,1.91a3,3,0,0,1,1.73-2.37l.23.27c.57,1.2,1.14,1,1.7,0l0,0Z"/><path class="cls-4" d="M335.25,228.31c-1.86-1.1-3.63-2.27-4.32-4.49A16.2,16.2,0,0,1,335.25,228.31Z"/><path class="cls-4" d="M344.16,175.33a7.73,7.73,0,0,1,5.1,3.32A17.93,17.93,0,0,1,344.16,175.33Z"/><path class="cls-4" d="M226.14,176.4A6.8,6.8,0,0,1,230.6,173,12.19,12.19,0,0,1,226.14,176.4Z"/><path class="cls-4" d="M354.72,257.17c-1.66-1.3-2.25-3.19-2.76-5.11A10.67,10.67,0,0,1,354.72,257.17Z"/><path class="cls-4" d="M316.14,210.1a5.54,5.54,0,0,1-3.86-2.84A8.94,8.94,0,0,1,316.14,210.1Z"/><path class="cls-4" d="M234.64,170.18a5,5,0,0,1,3.94-2.23A8.86,8.86,0,0,1,234.64,170.18Z"/><path class="cls-4" d="M231.26,172.47c.57-1.55,1.87-2,3.33-2.27A7.12,7.12,0,0,1,231.26,172.47Z"/><path class="cls-4" d="M349.11,247.49a5.66,5.66,0,0,1-2.2-3.47A4.78,4.78,0,0,1,349.11,247.49Z"/><path class="cls-4" d="M322.39,215.77a3,3,0,0,1-2.72-2.32A5.16,5.16,0,0,1,322.39,215.77Z"/><path class="cls-4" d="M326.88,219.76a3.15,3.15,0,0,1-2.68-2.32A5.42,5.42,0,0,1,326.88,219.76Z"/><path class="cls-4" d="M339.43,233.34a3.14,3.14,0,0,1-2.25-2.76A4.89,4.89,0,0,1,339.43,233.34Z"/><path class="cls-4" d="M358.87,186.13c1.3.18,1.64,1.1,1.71,2.23C359.46,188,359.18,187.07,358.87,186.13Z"/><path class="cls-4" d="M319,212.93a4.39,4.39,0,0,1-2.17-2.28C317.92,211.06,319,211.48,319,212.93Z"/><path class="cls-4" d="M343.41,239c-1.4-.43-1.48-1.65-1.67-2.8C343,236.74,342.91,238,343.41,239Z"/><path class="cls-4" d="M352,252c-1.33-.44-1.48-1.62-1.73-2.73A3.93,3.93,0,0,1,352,252Z"/><path class="cls-4" d="M351.52,180.44a2.17,2.17,0,0,1,2.27,1.63A3,3,0,0,1,351.52,180.44Z"/><path class="cls-4" d="M341.72,236.16a2.29,2.29,0,0,1-1.73-2.09A2.87,2.87,0,0,1,341.72,236.16Z"/><path class="cls-4" d="M346.17,243a2.2,2.2,0,0,1-1.56-2.33A3.1,3.1,0,0,1,346.17,243Z"/><path class="cls-4" d="M356.72,184.36a2.08,2.08,0,0,1,2.13,1.76A3.43,3.43,0,0,1,356.72,184.36Z"/><path class="cls-4" d="M331.16,167.92c.95,0,1.89-.06,2.21,1.13A3.37,3.37,0,0,1,331.16,167.92Z"/><path class="cls-4" d="M362.44,190l1.35-.19c0,.51,0,1,0,1.52C363.19,191.08,362.58,190.79,362.44,190Z"/><path class="cls-4" d="M311.62,206.69c-.83,0-1.45-.23-1.6-1.15A1.84,1.84,0,0,1,311.62,206.69Z"/><path class="cls-4" d="M344.6,240.67a1.34,1.34,0,0,1-1.16-1.63A2.21,2.21,0,0,1,344.6,240.67Z"/><path class="cls-4" d="M336.57,229.94a1.13,1.13,0,0,1-1-1.19A1.16,1.16,0,0,1,336.57,229.94Z"/><path class="cls-4" d="M355.26,258.85c-.74-.37-.48-1-.5-1.63C355.69,257.53,355.07,258.32,355.26,258.85Z"/><path class="cls-4" d="M350.17,249.21a.83.83,0,0,1-.53-1A.8.8,0,0,1,350.17,249.21Z"/><path class="cls-4" d="M322.93,216.33c-.35,0-.49-.15-.47-.49C322.8,215.83,322.94,216,322.93,216.33Z"/><path class="cls-4" d="M323.58,216.86c-.33,0-.53-.1-.55-.45C323.38,216.36,323.57,216.51,323.58,216.86Z"/><path class="cls-4" d="M324.17,217.42a.46.46,0,0,1-.55-.51Z"/><path class="cls-4" d="M230.68,173c0-.35.18-.51.53-.48C231.18,172.83,231,173,230.68,173Z"/><path class="cls-4" d="M327.41,220.31c-.33,0-.46-.14-.42-.46C327.32,219.83,327.47,220,327.41,220.31Z"/><path class="cls-4" d="M328,220.87c-.31,0-.47-.1-.45-.43C327.9,220.38,328,220.52,328,220.87Z"/><path class="cls-4" d="M328.56,221.44c-.33,0-.48-.12-.44-.45C328.45,221,328.6,221.1,328.56,221.44Z"/><path class="cls-4" d="M329.14,222q-.5,0-.45-.45C329,221.51,329.18,221.66,329.14,222Z"/><path class="cls-4" d="M329.7,222.57c-.34,0-.48-.11-.45-.44C329.59,222.09,329.73,222.24,329.7,222.57Z"/><path class="cls-4" d="M330.25,223.14c-.32,0-.46-.13-.43-.45C330.17,222.65,330.31,222.79,330.25,223.14Z"/><path class="cls-4" d="M330.83,223.71c-.32,0-.47-.1-.45-.43C330.72,223.23,330.86,223.37,330.83,223.71Z"/><path class="cls-4" d="M293.63,195.84a.45.45,0,0,1-.63-.4C293.35,195.35,293.52,195.54,293.63,195.84Z"/><path class="cls-4" d="M349.36,178.7c.33-.07.5.07.49.41Z"/><path class="cls-4" d="M337.13,230.5c-.34,0-.51-.15-.49-.49C337,230,337.17,230.13,337.13,230.5Z"/><path class="cls-4" d="M350,179.26l.44.32C350.11,179.7,350,179.6,350,179.26Z"/><path class="cls-4" d="M339.84,233.92c-.34,0-.44-.2-.37-.52C339.79,233.44,339.94,233.59,339.84,233.92Z"/><path class="cls-4" d="M350.91,179.9a.53.53,0,0,1,.58.52C351.1,180.46,351,180.24,350.91,179.9Z"/><path class="cls-4" d="M353.85,182.12c.35,0,.5.15.51.48C354,182.65,353.83,182.48,353.85,182.12Z"/><path class="cls-4" d="M354.46,182.67l.48.28C354.66,183.07,354.5,183,354.46,182.67Z"/><path class="cls-4" d="M355.25,183.25c.2,0,.29.09.27.29C355.24,183.63,355.12,183.55,355.25,183.25Z"/><path class="cls-4" d="M356,183.85a.46.46,0,0,1,.61.43C356.28,184.35,356.12,184.16,356,183.85Z"/><path class="cls-4" d="M360.61,188.38c.32,0,.54.09.56.45A.43.43,0,0,1,360.61,188.38Z"/><path class="cls-4" d="M349.58,248.09a.45.45,0,0,1-.45-.57C349.46,247.57,349.65,247.73,349.58,248.09Z"/><path class="cls-4" d="M361.27,188.92c.35,0,.48.18.46.5C361.38,189.43,361.24,189.25,361.27,188.92Z"/><path class="cls-4" d="M361.81,189.49c.31-.05.5,0,.51.39C362,189.94,361.84,189.81,361.81,189.49Z"/><path class="cls-4" d="M312.24,207.22c-.36,0-.53-.12-.53-.47C312.07,206.7,312.23,206.87,312.24,207.22Z"/><path class="cls-4" d="M316.78,210.63c-.34.05-.53-.09-.55-.44C316.57,210.14,316.73,210.31,316.78,210.63Z"/><path class="cls-4" d="M363.87,191.38c.16,0,.26,0,.29.17H364Z"/><path class="cls-4" d="M346.69,243.57c-.31,0-.47-.14-.43-.47C346.63,243.05,346.76,243.22,346.69,243.57Z"/><path class="cls-5" d="M142.33,169.67c0,.65.26,1.38-.58,1.76A1.42,1.42,0,0,1,142.33,169.67Z"/><path class="cls-1" d="M221.11,182.76c-.56,1-1.13,1.21-1.7,0C220,182.78,220.54,181.67,221.11,182.76Z"/></svg>