<?xml version="1.0" encoding="UTF-8" standalone="no"?>
<!DOCTYPE svg PUBLIC "-//W3C//DTD SVG 1.1//EN" "http://www.w3.org/Graphics/SVG/1.1/DTD/svg11.dtd">
<svg xmlns="http://www.w3.org/2000/svg" xmlns:xlink="http://www.w3.org/1999/xlink" version="1.1" width="841pt" height="362pt" viewBox="0 0 841 362">
<g enable-background="new">
<g>
<clipPath id="cp0">
<path transform="matrix(.83625,0,0,.83625,1.5387499,0)" d="M -2 -2 L 1004 -2 L 1004 431 L -2 431 L -2 -2 Z "/>
</clipPath>
<g clip-path="url(#cp0)">
<path transform="matrix(.83625,0,0,.83625,1.5387499,0)" d="M -1 -1 L 1003 -1 L 1003 30 L -1 30 L -1 -1 Z " fill="#031166"/>
<path transform="matrix(.83625,0,0,.83625,1.5387499,0)" d="M -1 29 L 1003 29 L 1003 110 L -1 110 L -1 29 Z " fill="#ffdeb3"/>
<path transform="matrix(.83625,0,0,.83625,1.5387499,0)" d="M -1 109 L 1003 109 L 1003 270 L -1 270 L -1 109 Z " fill="#ffc4b3"/>
<path transform="matrix(.83625,0,0,.83625,1.5387499,0)" d="M -1 269 L 1003 269 L 1003 430 L -1 430 L -1 269 Z " fill="#ffa0a0"/>
<path transform="matrix(.83625,0,0,.83625,1.5387499,0)" d="" fill-opacity=".14901962"/>
<path transform="matrix(.83625,0,0,.83625,1.5387499,0)" stroke-width="1" stroke-linecap="butt" stroke-miterlimit="10" stroke-linejoin="miter" fill="none" stroke="#000000" d="M -.5 -1 L -.5 430 M -1 189.5 L 201 189.5 M -1 349.5 L 201 349.5 M 200.5 29 L 200.5 430 M 601.5 29 L 601.5 430 M -1 -.5 L 1003 -.5 M -1 29.5 L 1003 29.5 M -1 109.5 L 1003 109.5 M -1 269.5 L 1003 269.5 M -1 429.5 L 1003 429.5 M 1002.5 -1 L 1002.5 430 "/>
<path transform="matrix(.83625,0,0,.83625,1.5387499,0)" stroke-width="1" stroke-linecap="butt" stroke-miterlimit="10" stroke-linejoin="miter" fill="none" stroke="#ffffff" d="M 200.5 0 L 200.5 29 M 601.5 0 L 601.5 29 "/>
<text fill="#ffffff" xml:space="preserve" transform="matrix(.83625 0 0 .83625 1.5387499 0)" font-size="14.299999" font-family="Montserrat" font-weight="bold"><tspan y="18.839274" x="17 27.4676 37.2917 47.1587 51.462999 55.767297 64.2186 68.265499 77.38889 83.36629 92.73279 98.83889 113.83959 117.88649 133.7452 142.5683 148.6744 158.5557 162.86 172.79851">Public Storm Warning</tspan></text>
<text fill="#ffffff" xml:space="preserve" transform="matrix(.83625 0 0 .83625 1.5387499 0)" font-size="14.299999" font-family="Montserrat" font-weight="bold"><tspan y="18.839274" x="337 347.2674 355.94749 364.49888 370.54777 379.57106 385.54844 394.91493 398.96183 409.84413 419.73973 428.2911 432.5954 440.1887 449.55519 455.91868">Payreto Advisory</tspan></text>
<text fill="#ffffff" xml:space="preserve" transform="matrix(.83625 0 0 .83625 1.5387499 0)" font-size="14.299999" font-family="Montserrat" font-weight="bold"><tspan y="18.839274" x="726 735.5953 750.59597 760.46298 764.7673 773.9336 782.2848 791.3081 800.3314 804.3783 814.8888 823.9121 831.50546 841.37246 850.73898 860.62026 868.21359">Employee Response</tspan></text>
<text xml:space="preserve" transform="matrix(.83625 0 0 .83625 1.5387499 0)" font-size="14.299999" font-family="Montserrat"><tspan y="65.83927" x="60 70.2674 79.061908 94.749 103.5435 107.2901 118.916 127.6819 130.7135 134.4601">PSWS No. 1</tspan></text>
<text xml:space="preserve" transform="matrix(.83625 0 0 .83625 1.5387499 0)" font-size="14.299999" font-family="Montserrat"><tspan y="83.26704" x="29 37.880304 47.447004 55.8697 64.10651 75.8182 91.7055 95.452098 110.82459 121.07769 131.4166 143.0425 147.3611 158.987">YELLOW WARNING</tspan></text>
<text xml:space="preserve" transform="matrix(.83625 0 0 .83625 1.5387499 0)" font-size="14.299999" font-family="Montserrat" font-weight="bold"><tspan y="65.83927" x="204 215.5544 224.9209 228.9678 242.1667 251.5332 257.6393 267.0773 271.1242 278.7175 288.5416 296.1349 306.0019 315.0252 324.9065 332.4998 336.80409 346.17057 356.05186 360.09877 369.96577 379.78987 386.01036 390.05726 396.27775 405.10084 411.14973 421.04533 425.3496 435.2881 444.3114 451.9047 459.498 463.5449 467.84919 475.44248 479.48939 488.3125 496.5779 505.0292 514.85336 522.44668 531.47 541.3656">No work suspension but tardiness is excused </tspan></text>
<text xml:space="preserve" transform="matrix(.83625 0 0 .83625 1.5387499 0)" font-size="14.299999" font-family="Montserrat" font-weight="bold"><tspan y="83.26704" x="204 209.1051 222.7616 231.5847 241.466 250.34632 260.35633 269.37965 275.54295 278.83195 286.42524 290.47215 300.36775 304.67204 312.26533 320.7166 326.7655 335.78883 342.0093 346.3136 355.68009 365.56138 370.6808">(Manager's discretion).</tspan></text>
<text xml:space="preserve" transform="matrix(.83625 0 0 .83625 1.5387499 0)" font-size="14.299999" font-family="Montserrat" font-weight="bold"><tspan y="47.83927" x="605 618.6565 630.7257 642.2801 646.9705 655.6649 667.73416">MONITOR</tspan></text>
<text xml:space="preserve" transform="matrix(.83625 0 0 .83625 1.5387499 0)" font-size="14.299999" font-family="Montserrat"><tspan y="82.6948" x="605 612.436 620.873 628.50918 634.31497 638.0615 647.02767 652.76199 656.50857 666.6901 675.12716 678.9738 682.8205 686.5671 694.1175 703.0836 712.69326 718.42758 722.17416 732.95639 743.23806 753.50546 757.252 764.688 773.125 781.562 796.7343 800.4809 808.8035 817.24057 825.67758 835.3729 842.3513">Text or Call your BCP Team Leads.</tspan></text>
<text xml:space="preserve" transform="matrix(.83625 0 0 .83625 1.5387499 0)" font-size="14.299999" font-family="Montserrat"><tspan y="100.12256" x="605 620.1151 628.5521 632.3988 638.2046 641.9512 646.6845 655.65066 661.38497 665.13156 673.926 679.7318 688.1688 693.9746 703.5842 710.5626 714.3092 725.09146 730.6542 739.5917 748.0287 757.72409 765.77499 774.212 781.19039 787.13919">Wait for Status Broadcast.</tspan></text>
<text xml:space="preserve" transform="matrix(.83625 0 0 .83625 1.5387499 0)" font-size="14.299999" font-family="Montserrat"><tspan y="145.83928" x="58 68.2674 77.061908 92.749 101.5435 105.2901 116.916 125.6819 128.7135 132.4601">PSWS No. 2</tspan></text>
<text xml:space="preserve" transform="matrix(.83625 0 0 .83625 1.5387499 0)" font-size="14.299999" font-family="Montserrat"><tspan y="163.26703" x="28 39.9977 50.3366 60.5897 72.2156 83.2695 92.8362 96.582798 111.95529 122.20839 132.54729 144.17319 148.49179 160.11769">ORANGE WARNING</tspan></text>
<text xml:space="preserve" transform="matrix(.83625 0 0 .83625 1.5387499 0)" font-size="14.299999" font-family="Montserrat" font-weight="bold"><tspan y="132.83928" x="204 215.8118 220.1161 227.70941 236.1607 242.20961 251.23291 257.4534 261.7577 271.12419 281.00547 289.82856 296.19206 304.74345 308.79035 321.98927 331.35575 337.46186 346.89985 350.94676 358.54005 368.36415 375.95744 385.82444 394.84773 404.729 412.3223 416.6266 425.99308 435.87437">Discretionary work suspension.</tspan></text>
<text xml:space="preserve" transform="matrix(.83625 0 0 .83625 1.5387499 0)" font-size="14.299999" font-family="Montserrat"><tspan y="167.6948" x="204 219.1151 228.08119 233.7154 242.3097 246.05629 261.22859 269.52259 277.2732 281.0198 290.7152 299.35243 303.09904 312.06513 321.73194 325.47856 332.45695 340.76524 349.40245 353.24916 361.88636 367.69215 376.12916 379.97587 383.72248 388.45576 397.42185 402.98457 410.92106 419.55827 423.30488 432.27098 438.00529 441.7519 448.7303 458.33988 465.31828 475.01368 483.65089 493.3177 503.0131 511.6503 521.3457 525.0923 537.662 547.3288 555.966 565.6328 569.3794 575.1852 584.852 593.4892">Work may be on skeletal force or suspended when the </tspan></text>
<text xml:space="preserve" transform="matrix(.83625 0 0 .83625 1.5387499 0)" font-size="14.299999" font-family="Montserrat"><tspan y="185.12256" x="204 208.7333 217.6994 221.5461 225.39279 234.15869 246.7284 250.57509 260.24189 270.03739 273.784 281.7205 290.68659 300.3534 310.0488 313.8955 319.7013 323.548 332.5141 342.1809 349.1593 352.9059 362.60133 371.23854 375.08525 383.85115 396.42085 400.16746 408.60447 414.16719 422.80439 426.551 441.7233 450.3605 456.1663">following conditions below are met:</tspan></text>
<text xml:space="preserve" transform="matrix(.83625 0 0 .83625 1.5387499 0)" font-size="14.299999" font-family="Montserrat"><tspan y="202.55033" x="204 215.0539 223.8198 231.3702 240.0074 245.6416 255.3084 270.48069 279.1179 288.7847 294.59049 298.3371 310.3348 315.1968 320.0445 323.8912 331.8277 340.4649 347.4433 351.1899 359.62693 369.29374 378.96055 387.92665 397.53623 407.20304 415.13954 423.77674 430.75514 434.50175 441.48014 451.08973 458.0681 467.76353 476.40074 486.06755 493.04594 496.89265 505.85874 515.5255">Government Offices announces suspension.</tspan></text>
<text xml:space="preserve" transform="matrix(.83625 0 0 .83625 1.5387499 0)" font-size="14.299999" font-family="Montserrat"><tspan y="219.97809" x="204 208.3186 213.1663 216.9129 225.3499 229.1966 233.04329 236.78989 251.96219 260.3992 264.3174 273.2835 279.01783 282.76445 288.32716 297.26466 305.70167 315.39707 322.37547 326.12208 329.96879 339.6356 343.3822 357.0387 365.6759 371.4817 377.0444 386.0105 389.7571 403.4136 411.85063 421.51744 425.36415 429.21086 437.64787 441.39448 449.83149 455.3942 464.0314 467.778 477.44483 486.41093 490.15754 494.00425 502.97035 512.63717 522.4326 531.0698 536.80416">If all major roads in Metro Manila are no longer </tspan></text>
<text xml:space="preserve" transform="matrix(.83625 0 0 .83625 1.5387499 0)" font-size="14.299999" font-family="Montserrat"><tspan y="237.40586" x="204 213.66681 222.1038 229.0822 236.0606 244.49759 254.193 258.0397 266.6769">passable.</tspan></text>
<text xml:space="preserve" transform="matrix(.83625 0 0 .83625 1.5387499 0)" font-size="14.299999" font-family="Montserrat"><tspan y="254.83362" x="204 208.3186 223.4909 238.66321 247.30042 256.99583 260.84254 269.27955 274.82795 283.46516 287.21177 293.01756 302.68437 308.24708 316.68409 325.1211 330.92689 334.6735 340.2219 349.188 352.9346 356.7813 360.62803 365.3613 373.9985 377.74513 386.18214 395.84895 405.54435 409.29096 418.98637 424.54908 433.51518 443.21058 451.84779 457.7823 463.44508 470.70948">Immediate threat to life and property.</tspan></text>
<text xml:space="preserve" transform="matrix(.83625 0 0 .83625 1.5387499 0)" font-size="14.299999" font-family="Montserrat" font-weight="bold"><tspan y="132.83928" x="605 615.9538 624.591 634.1863 644.5538">ALERT</tspan></text>
<text xml:space="preserve" transform="matrix(.83625 0 0 .83625 1.5387499 0)" font-size="14.299999" font-family="Montserrat"><tspan y="167.6948" x="605 616.8118 625.77798 629.52456 639.19137 648.1575 653.96328 657.70986 667.4052 672.96798 681.9341 689.8706 698.5078 707.145 716.8404 720.587 726.1354 735.1015 738.8481 751.2176 760.1837 765.81796 774.41226 778.1588 782.0055 786.8532 790.5998 796.16256 805.10006 813.53707 823.2324 826.979 834.5294 843.49557 853.10519 856.85177 866.51858 874.81259 882.363 891.0002 894.74679 900.29519 909.2613 913.0079 918.81369 927.2507 935.55899 944.19619 947.94277 951.7894 958.7678 962.5144 972.1812 981.14736">Do not proceed to work if road you have to take is no </tspan></text>
<text xml:space="preserve" transform="matrix(.83625 0 0 .83625 1.5387499 0)" font-size="14.299999" font-family="Montserrat"><tspan y="185.12256" x="605 608.8467 617.8128 627.4796 637.2751 645.9123 651.6466 655.3932 665.05996 673.49697 680.47537 687.45376 695.89077 705.5861 709.4328 718.07 721.1016 724.8482 739.9633 748.4003 752.247 758.0528 761.7994 766.5327 775.49887 781.23318 784.97976 790.7855 800.45236 809.08956 812.8361 817.68386 821.5305 830.49667 839.46279 849.15817 852.9047 858.4531 867.41928 871.16586 878.1442 887.75387 897.4492 904.4276 908.2743 917.96969 926.6069">longer passable. Wait for the flood to subside.</tspan></text>
<text xml:space="preserve" transform="matrix(.83625 0 0 .83625 1.5387499 0)" font-size="14.299999" font-family="Montserrat"><tspan y="202.55033" x="605 612.436 620.873 628.50918 634.31497 638.0615 647.02767 652.76199 656.50857 666.6901 675.12716 678.9738 682.8205 686.5671 694.1175 703.0836 712.69326 718.42758 722.17416 732.95639 743.23806 753.50546 757.252 764.688 773.125 781.562 796.7343 800.4809 808.8035 817.24057 825.67758 835.3729 842.3513">Text or Call your BCP Team Leads.</tspan></text>
<text xml:space="preserve" transform="matrix(.83625 0 0 .83625 1.5387499 0)" font-size="14.299999" font-family="Montserrat"><tspan y="219.97809" x="605 616.8118 625.44906 633.39987 637.2465 646.9419 655.5791 659.3257 671.8954 675.74209 681.54788 691.21469 694.96127 704.6566 708.5033 716.9403 723.9187 727.6653 736.6314 746.2982 750.0448 757.0232 765.4602 770.19357 778.83078 784.4935 792.24417 795.9907 804.42776 814.09457 823.7899 827.5365 840.1062 843.9529 849.75869 859.4255">Decide with bias on safety and with </tspan></text>
<text xml:space="preserve" transform="matrix(.83625 0 0 .83625 1.5387499 0)" font-size="14.299999" font-family="Montserrat" font-weight="bold"><tspan y="219.97809" x="863.0852 873.0952 882.1185 891.9998 901.8239 906.12826 916.0667 925.09">genuine </tspan></text>
<text xml:space="preserve" transform="matrix(.83625 0 0 .83625 1.5387499 0)" font-size="14.299999" font-family="Montserrat"><tspan y="237.40586" x="605 614.6954 618.54208 623.40408 628.2518 632.09848 640.14938 649.759 653.61996 659.4257 663.2724 671.9096 678.888">difficulties.</tspan></text>
<text xml:space="preserve" transform="matrix(.83625 0 0 .83625 1.5387499 0)" font-size="14.299999" font-family="Montserrat"><tspan y="254.83362" x="605 620.1151 628.5521 632.3988 638.2046 641.9512 646.6845 655.65066 661.38497 665.13156 673.926 679.7318 688.1688 693.9746 703.5842 710.5626 714.3092 725.09146 730.6542 739.5917 748.0287 757.72409 765.77499 774.212 781.19039 787.13919">Wait for Status Broadcast.</tspan></text>
<text xml:space="preserve" transform="matrix(.83625 0 0 .83625 1.5387499 0)" font-size="14.299999" font-family="Montserrat"><tspan y="225.83928" x="58 68.2674 77.061908 92.749 101.5435 105.2901 116.916 125.6819 128.7135 132.4601">PSWS No. 3</tspan></text>
<text xml:space="preserve" transform="matrix(.83625 0 0 .83625 1.5387499 0)" font-size="14.299999" font-family="Montserrat"><tspan y="243.26703" x="28 39.9977 50.3366 60.5897 72.2156 83.2695 92.8362 96.582798 111.95529 122.20839 132.54729 144.17319 148.49179 160.11769">ORANGE WARNING</tspan></text>
<text xml:space="preserve" transform="matrix(.83625 0 0 .83625 1.5387499 0)" font-size="14.299999" font-family="Montserrat"><tspan y="305.83927" x="58 68.2674 77.061908 92.749 101.5435 105.2901 116.916 125.6819 128.7135 132.4601">PSWS No. 4</tspan></text>
<text xml:space="preserve" transform="matrix(.83625 0 0 .83625 1.5387499 0)" font-size="14.299999" font-family="Montserrat"><tspan y="323.26704" x="44 54.3389 63.9056 75.7174 79.464 94.836498 105.08959 115.42849 127.05439 131.37299 142.99889">RED WARNING</tspan></text>
<text xml:space="preserve" transform="matrix(.83625 0 0 .83625 1.5387499 0)" font-size="14.299999" font-family="Montserrat" font-weight="bold"><tspan y="353.83927" x="204 219.8587 229.2252 235.3313 244.7693 248.81621 256.40953 266.2336 273.8269 283.6939 292.71723 302.6557 312.5513 321.5746 331.47019 335.5171 340.9654 350.33189 356.49519 360.54209 369.36518 374.99937 380.44767 389.47096 398.02235 403.99974 413.023 422.9186 426.9655 435.7886 441.8375 450.66059 459.48368 467.07698 471.12388 480.49037 490.37165 494.67594 502.7697">Work suspended for affected areas only.</tspan></text>
<text xml:space="preserve" transform="matrix(.83625 0 0 .83625 1.5387499 0)" font-size="14.299999" font-family="Montserrat" font-weight="bold"><tspan y="310.83927" x="605 614.1234 623.7187 634.1434 645.41177 655.92227">SECURE</tspan></text>
<text xml:space="preserve" transform="matrix(.83625 0 0 .83625 1.5387499 0)" font-size="14.299999" font-family="Montserrat"><tspan y="345.6948" x="605 612.436 620.873 628.50918 634.31497 638.0615 647.02767 652.76199 656.50857 666.6901 675.12716 678.9738 682.8205 686.5671 694.1175 703.0836 712.69326 718.42758 722.17416 732.95639 743.23806 753.50546 757.252 764.688 773.125 781.562 796.7343 800.4809 808.8035 817.24057 825.67758 835.3729 842.3513">Text or Call your BCP Team Leads.</tspan></text>
<text xml:space="preserve" transform="matrix(.83625 0 0 .83625 1.5387499 0)" font-size="14.299999" font-family="Montserrat"><tspan y="363.12257" x="605 618.6565 627.6226 637.2894 641.1361 646.6845 655.65066 661.38497 665.13156 673.06808 682.0342 697.2065 706.8732 715.31027 724.83407 732.58468 736.33126 744.26779 753.2339 768.4062 783.5785 793.1881 802.8549 806.7016 814.7525 823.1895 828.9953 832.842 841.8081 851.4749 855.2215 863.158 872.8248 881.26187 890.92868 900.59548 909.23269 913.07937 920.05776">Monitor company communication channels.</tspan></text>
<text xml:space="preserve" transform="matrix(.83625 0 0 .83625 1.5387499 0)" font-size="14.299999" font-family="Montserrat"><tspan y="380.55033" x="605 616.8118 625.44906 633.39987 637.2465 646.9419 655.5791 659.3257 671.8954 675.74209 681.54788 691.21469 694.96127 704.6566 708.5033 716.9403 723.9187 727.6653 736.6314 746.2982 750.0448 757.0232 765.4602 770.19357 778.83078 784.4935 791.75796">Decide with bias on safety.</tspan></text>
<text xml:space="preserve" transform="matrix(.83625 0 0 .83625 1.5387499 0)" font-size="14.299999" font-family="Montserrat"><tspan y="397.9781" x="605 620.1151 628.5521 632.3988 638.2046 641.9512 646.6845 655.65066 661.38497 665.13156 673.926 679.7318 688.1688 693.9746 703.5842 710.5626 714.3092 725.09146 730.6542 739.5917 748.0287 757.72409 765.77499 774.212 781.19039 787.13919">Wait for Status Broadcast.</tspan></text>
<text xml:space="preserve" transform="matrix(.83625 0 0 .83625 1.5387499 0)" font-size="14.299999" font-family="Montserrat"><tspan y="385.83927" x="58 68.2674 77.061908 92.749 101.5435 105.2901 116.916 125.6819 128.7135 132.4601">PSWS No. 5</tspan></text>
<text xml:space="preserve" transform="matrix(.83625 0 0 .83625 1.5387499 0)" font-size="14.299999" font-family="Montserrat"><tspan y="403.26704" x="44 54.3389 63.9056 75.7174 79.464 94.836498 105.08959 115.42849 127.05439 131.37299 142.99889">RED WARNING</tspan></text>
</g>
</g>
</g>
</svg>
