<svg id="Layer_1" data-name="Layer 1" xmlns="http://www.w3.org/2000/svg" viewBox="0 0 500 500"><defs><style>.cls-1{fill:#703a96;}.cls-2{fill:#202a5d;}.cls-3{fill:#f2f1f2;}.cls-4{fill:#fde69a;}</style></defs><path class="cls-1" d="M451.11,274.4c2.72,7,0,13.78-1.22,20.49a173.26,173.26,0,0,1-19.6,53.17c-17,30.17-40.6,54-70,72.09-1.44.88-2.85,1.82-4.27,2.74a2.45,2.45,0,0,0-1.81,1.07,1.1,1.1,0,0,0-1.06.52,6.3,6.3,0,0,0-2.94,1.73l-1,.54c-8.39,3.77-16.63,7.86-25.27,11.1A220.29,220.29,0,0,1,211.64,449a215.26,215.26,0,0,1-55-16.32,206.31,206.31,0,0,1-53.22-34.4A194.31,194.31,0,0,1,60.1,342.82a185.16,185.16,0,0,1-18.61-57.66,16.86,16.86,0,0,1,4.6-15.06c7.64-8,22.54-10.57,32.8-5.82,6.75,3.12,11.11,8.06,12.26,15.36a133.52,133.52,0,0,0,25.25,59.64c12.39,16.71,28,29.77,45.75,40.54,5,3,9.65,3.32,14.94,1.72a101.78,101.78,0,0,0,17.4-7.25,26.28,26.28,0,0,0,12.62-13.83,77.18,77.18,0,0,0,3.53-9.82c2.64-9.82,4.33-19.7,2-29.85a10.51,10.51,0,0,0-5.38-7.42A68.54,68.54,0,0,1,188,297c-13.74-16.66-19.59-35.81-17.4-57.29,2.1-20.53,11.2-37.55,27-50.74,16.33-13.63,35.29-19.41,56.47-17.27,20.53,2.07,37.48,11.24,50.77,27a73.64,73.64,0,0,1,17.59,44.05A76.59,76.59,0,0,1,287.62,312a13.7,13.7,0,0,0-6.44,9.19,41.29,41.29,0,0,0-.9,6.43,72.79,72.79,0,0,0,8.25,36.15c1.63,3.14,3.37,6.34,6.71,8.17a78.36,78.36,0,0,0,23.47,8.69c3.53.65,7.19,2,10.76-.07,29.6-17.1,51.91-40.74,64.88-72.67a112.82,112.82,0,0,0,8-31.11,18.49,18.49,0,0,1,8.73-14.36C423.42,254.36,444.32,258.75,451.11,274.4Z"/><path class="cls-2" d="M451.19,237.52c-3.86,6.82-9.78,10.51-17.4,12-10.32,2.07-18.61-1.32-25.3-9a16.52,16.52,0,0,1-3.67-9.59,132.55,132.55,0,0,0-19.35-59.05C372.09,150.07,354,133,331.89,120.19A167.27,167.27,0,0,0,259.19,98a169.7,169.7,0,0,0-79.31,12.85C150.17,123.4,126,142.92,108.7,170.35a134.11,134.11,0,0,0-20.4,60.88c-.7,8.18-6.23,13.72-13.39,17.63-4.43,2.41-9,3.55-13.92,2.54-9.53-2-16.76-7-20.16-16.57-.15-.43-.39-.84-.58-1.27-1.57-8.32,1.24-16.22,2.55-24.22A170.5,170.5,0,0,1,62,154.81a193.63,193.63,0,0,1,48.16-57.65,207.57,207.57,0,0,1,40.84-26,215.6,215.6,0,0,1,57.59-18.46A221,221,0,0,1,330.2,65.78a207.66,207.66,0,0,1,57.73,35.48,191.42,191.42,0,0,1,44.55,56.06,181.83,181.83,0,0,1,20,66.07c.46,4.3-.16,8.34-.74,12.48l-.22.46Z"/><path class="cls-3" d="M350.18,426.21a6.3,6.3,0,0,1,2.94-1.73C352.84,426.24,351.52,426.24,350.18,426.21Z"/><path class="cls-3" d="M354.18,424a2.45,2.45,0,0,1,1.81-1.07C355.88,424.08,355,424,354.18,424Z"/><path class="cls-3" d="M451.56,236.33l.22-.46A.58.58,0,0,1,451.56,236.33Z"/><path class="cls-4" d="M243.2,117.88c25-.1,46.71,5.68,66.92,16.94a132.76,132.76,0,0,1,52.09,51.66,130.48,130.48,0,0,1,16,49.33,123.72,123.72,0,0,1-9,63.52,119.82,119.82,0,0,1-20.92,33c-3,3.4-6.22,6.58-9.33,9.86a19.63,19.63,0,0,1-12,6.37c-7.88,1-12.83-5.11-10.91-13.26a21,21,0,0,1,7-11.79c7-5.84,12.52-13,17.31-20.72a95.78,95.78,0,0,0,13.3-35.49,103.21,103.21,0,0,0-4.54-52,108.93,108.93,0,0,0-22-36.57A111,111,0,0,0,295,154.07,112.65,112.65,0,0,0,258,142.73c-17-2.21-33.75-.7-49.71,5.4-34.7,13.26-56.81,38.07-64.53,74.54C138.14,249,143,274,156.86,297.08a112.17,112.17,0,0,0,24.86,28.7,23.74,23.74,0,0,1,7.26,9.91c2.87,7.74-2.34,12.52-9.06,12.9a21.56,21.56,0,0,1-16.63-6.48c-10.35-10-20-20.53-27.31-33a133.52,133.52,0,0,1-16.89-47,117,117,0,0,1-1.56-20.52c.52-27.74,8.68-53,25.89-75,20.11-25.69,46.55-40.95,78.49-46.83A97.84,97.84,0,0,1,243.2,117.88Z"/></svg>