<svg id="Layer_1" data-name="Layer 1" xmlns="http://www.w3.org/2000/svg" viewBox="0 0 500 500"><defs><style>.cls-1{fill:#0bb050;}.cls-2{fill:#fde599;}.cls-3{fill:#202a5d;}.cls-4{fill:#0cb150;}.cls-5{fill:#202b5d;}.cls-6{fill:#fff;}</style></defs><path class="cls-1" d="M233,473.94c8.11-4.39,15.07-10.29,21.53-16.77,16.34-16.39,26.94-36.12,30.8-58.79,3.3-19.42,4.64-39.11,1.66-58.9a232.63,232.63,0,0,0-14.52-53.7,130.4,130.4,0,0,0-35.64-49.9,203,203,0,0,0-43.69-28.95,4.66,4.66,0,0,1,3.14.38q27.28,9.63,54.07,20.59c18.08,7.44,35.79,15.68,53.44,24.08,8.07,3.84,16.61,3.05,24.57-.72,14.84-7,22.68-19.59,26.37-35,2.78-11.64,2.17-23.32.21-35.09A304.56,304.56,0,0,0,340.6,127a278.61,278.61,0,0,0-39.52-73.55,244.09,244.09,0,0,0-23.45-26.84c3.56.35,5.9,2.45,8.39,3.94A220.29,220.29,0,0,1,339,75a243.71,243.71,0,0,1,31.07,45.42,284.93,284.93,0,0,1,25,65.68c4.79,19.25,8.1,38.76,8.24,58.63.12,16.82-3.45,33.17-7.76,49.35a309,309,0,0,1-26.38,67c-7.26,13.52-16.74,25.39-27.14,36.53a344.86,344.86,0,0,1-62.24,52.29,282.7,282.7,0,0,1-47.35,25.66,12.74,12.74,0,0,1-1.58.53c-.11,0-.28-.13-.49-.23l1-.86,0,0c.76-.09,1.51-.22,1.73-1.14Z"/><path class="cls-2" d="M231.35,475l-1.67.07-.2-.2c.24-1.54,1.64-2.25,2.43-3.41,7.68-11.26,10.22-23.34,6.93-36.78-4.14-16.9-9.3-33.38-17.49-48.8-9.52-17.95-22-33.29-39.06-44.67A114.65,114.65,0,0,0,151.67,327a1.18,1.18,0,0,1-.88-.82c5.19.68,10.39,1.25,15.57,2,15.71,2.41,31.37,5.06,46.8,8.93,4.59,1.15,9.15,2.26,13.91,1.44,10.64-1.85,17.14-10.58,19.48-20.42,2.5-10.56.12-20.47-3.78-30.3-2.54-6.4-5.3-12.68-8.11-19-4.45-9.91-10.95-18.49-17.72-26.84a176.09,176.09,0,0,0-31.65-30.61c-2.52-1.88-5.11-3.68-7.57-5.7a72.08,72.08,0,0,1,14.05,4.87A137.71,137.71,0,0,1,236.25,242a177,177,0,0,1,25.83,35.29,223.49,223.49,0,0,1,18.12,42c2.21,6.94,3.11,14.1,3.91,21.32a222.45,222.45,0,0,1,1,28.27c-.14,8.76-1.39,17.45-2.06,26.17a83.87,83.87,0,0,1-5.33,22.73c-3.07,8.34-8.19,15.47-13.25,22.62a146.46,146.46,0,0,1-30.59,31.94c-.54.41-1.06.82-.86,1.62v-.07c-.93-.16-1.69-.05-1.73,1.14Z"/><path class="cls-3" d="M224,477.31c4.49-8.49-.27-15.29-4.35-21.8a109.37,109.37,0,0,0-46.92-41.44,84.89,84.89,0,0,0-36.88-8.32,7.21,7.21,0,0,1-2.86-.4c6.8-1.19,13.59-2.47,20.42-3.54,8.54-1.35,17.12-2.26,25.75-3,5.44-.46,8.58-4.49,10.1-9.48,2.56-8.35-.12-15.67-4.92-22.5-13.9-19.74-33.15-31.79-55.78-39-.72-.22-1.45-.41-2.16-.65-.16-.05-.28-.23-.41-.36a1.74,1.74,0,0,1,0-.22s.09.1.13.1c20.24-.42,38.32,6,54.29,18.06C198,358,212.75,374,221.82,394.36c6.11,13.76,12.12,27.67,14.37,42.74,1.69,11.25,1.25,22.25-5.35,32.14A32.34,32.34,0,0,1,224,477.31Z"/><path class="cls-4" d="M305.53,232.22a35.39,35.39,0,1,1,.33-70.78c19,0,35,16.15,34.92,35.31A35.28,35.28,0,0,1,305.53,232.22Z"/><path class="cls-2" d="M211,320.16c-12.19.06-22.24-9.4-22.13-21.26.11-12.21,8.91-22.37,22.13-22.25,12.1.11,21.58,10.16,21.49,21.39C232.39,310.58,223.26,320.1,211,320.16Z"/><path class="cls-5" d="M169.71,392.35c-6.94.43-13.07-5.28-13.57-12.63-.47-6.84,5.23-13.23,12.21-13.68a13.22,13.22,0,0,1,14.13,12.61C182.9,385.85,177.28,391.89,169.71,392.35Z"/><path class="cls-2" d="M229.07,475.57c-.06.6-.26,1.08-1,1-.14,0-.37-.2-.36-.26a1.2,1.2,0,0,1,1.22-.86Z"/><path class="cls-2" d="M229.68,475.06l-.61.51-.11-.1.52-.61Z"/><path class="cls-6" d="M231.31,475c0-1.19.8-1.3,1.73-1.14C232.82,474.79,232.07,474.92,231.31,475Z"/></svg>