<svg id="Layer_1" data-name="Layer 1" xmlns="http://www.w3.org/2000/svg" viewBox="0 0 500 500"><defs><style>.cls-1{fill:#fde599;}.cls-2{fill:#202a5d;}.cls-3{fill:#f8993a;}.cls-4{fill:#2d487c;}</style></defs><path class="cls-1" d="M319.51,29.29c4.12,7.85,8.05,15.31,12,22.79q14.29,27.3,28.57,54.62c7.36,14.12,14.32,28.46,22.15,42.32,3.06,5.4,2.9,9-.58,14.14-11,16.2-21.37,32.85-32,49.33-7.08,11-14.22,21.92-21.22,32.95-1.71,2.7-2.93,5.7-4.4,8.55a3.21,3.21,0,0,0,.29,3.22q11.42,21.15,22.82,42.32,7.46,13.8,14.94,27.57c5,9.09,10,18.15,15,27.23.33.59.58,1.22,1,2.08a58.7,58.7,0,0,1-9-.26c-4.06-.37-8.15-.3-12.24-.53-10.58-.58-21.19-.87-31.79-1.2a4.09,4.09,0,0,1-3.91-2.4c-8.57-16-17.23-31.88-25.83-47.82-8.94-16.56-17.77-33.18-26.83-49.67-1.24-2.25-.9-3.74.33-5.61,5.1-7.67,10.48-15.17,15.11-23.11,13.86-23.77,29.65-46.29,44.26-69.58a2.89,2.89,0,0,0,.06-3.32c-4.52-8.64-9.1-17.25-13.48-26-7.64-15.16-15.65-30.12-23.62-45.09-.91-1.7-1.3-3-.15-5,9.16-15.26,18.16-30.61,27.23-45.93A20.33,20.33,0,0,1,319.51,29.29Z"/><path class="cls-2" d="M387.49,370.68q8.38,14.67,16.79,29.34c3.46,6,7,12,10.49,18,.38.65.66,1.37.92,1.91-8.26,0-16.42.08-24.57,0-15.59-.17-31.17-.44-46.76-.65-15.06-.19-30.12-.33-45.18-.53-6.79-.09-13.58-.34-20.36-.32-2.07,0-3-.65-4-2.51-6.29-11.82-12.93-23.46-19.18-35.3-10.74-20.38-22.26-40.34-32.82-60.8-2.47-4.79-5.15-6.17-10.29-6.12-25,.23-50,0-75,0-9.66,0-19.32.22-29,.34h-3c2.51-4.44,4.81-8.56,7.18-12.64,6-10.3,12.07-20.55,18-30.88,3.12-5.45,3-5.53,9.22-5.51q52.8.14,105.62.22a3.54,3.54,0,0,1,3.71,2.27c4.3,8.23,9,16.23,13.2,24.52,12,24,25.73,47.13,38.17,70.92,2,3.82,4.2,5.16,8.57,5.15,21.77-.05,43.54.3,65.31.56,4,0,8,.31,11.95.47V381.2c.77-1.6.4-2.64.53-3.62C387.28,375.29,386.43,372.92,387.49,370.68Z"/><path class="cls-3" d="M283.34,96.13l21,39.23c1.69,3.14,3.35,6.29,5.13,9.38a2.88,2.88,0,0,1-.18,3.32q-28.63,47.15-57.16,94.34a2.77,2.77,0,0,1-2.91,1.54c-10.25-.56-20.53-.73-30.75-1.61-17.18-1.47-34.42-1.65-51.63-2.54-10-.52-20-.86-30-1.44-1.87-.1-2.64.83-3.44,2.12q-8.56,13.78-17.17,27.56c-8,13-16.1,25.87-24,38.87a3.9,3.9,0,0,1-4,2.09q-22.2-.42-44.41-.69c-3.7-.05-7.41,0-11.81,0,3.42-5.52,6.35-10.29,9.31-15q16.14-25.9,32.29-51.78,16-25.69,32-51.42a1.69,1.69,0,0,1,1.86-.89c10.26.53,20.53,1,30.79,1.42L194.37,193c9.22.4,18.44.78,27.66,1.23a3.71,3.71,0,0,0,3.74-2.12c13.08-21.72,26.4-43.29,39.3-65.11,5.6-9.47,11.21-18.93,16.68-28.47C282.18,97.83,282.69,97.13,283.34,96.13Z"/><path class="cls-2" d="M129.21,385.52c-.2-27.57,20.83-48.73,47.3-48.7,27.15,0,48.86,21.55,48.88,49.93,0,26.27-21.47,47.8-47.36,47.75A49.2,49.2,0,0,1,129.21,385.52Z"/><path class="cls-3" d="M180.08,72.61c25.56-.33,48.45,20.53,48.82,48.51.38,28.42-21.53,49-47.49,49-27.45,0-49.17-23.09-48.7-50.31C133.15,93.7,153.93,72.61,180.08,72.61Z"/><path class="cls-1" d="M408.5,209.88a48.68,48.68,0,0,1,48.89,49c-.08,27-20.73,47.72-47,47.9-26.77.19-48.09-21.37-49.08-46.94C360.22,231.75,382.62,209.44,408.5,209.88Z"/><path class="cls-4" d="M387.49,370.68c-1.06,2.24-.21,4.61-.5,6.9-.13,1,.24,2-.53,3.62V369.13A2.38,2.38,0,0,1,387.49,370.68Z"/></svg>